<?xml version="1.0" encoding="UTF-8"?>
<svg id="Layer_1" xmlns="http://www.w3.org/2000/svg" version="1.1" viewBox="0 0 400 100">
  <!-- Generator: Adobe Illustrator 29.3.1, SVG Export Plug-In . SVG Version: 2.1.0 Build 151)  -->
  <defs>
    <style>
      .st0 {
        stroke-linecap: round;
      }

      .st0, .st1 {
        fill: none;
        stroke: #f6f7f7;
        stroke-miterlimit: 10;
        stroke-width: .6px;
      }

      .st2 {
        fill: #f6f7f7;
      }

      .st3 {
        fill: #e27171;
      }
    </style>
  </defs>
  <g>
    <path class="st3" d="M8.6,62.3l3.8-5.4c0,0,0-.1,0-.2l1.2-15.4s0,0,0-.1l5.9-10.8c.1-.2.4-.2.6,0l3.5,4.7c0,0,0,.2,0,.3l-2.4,7.3c0,.1,0,.2,0,.3l1.2,1.3c.2.2.4.1.6,0l3.2-5.5s0,0,0,0l15.4-13.7c.1-.1.3-.1.5,0l2.6,2.6c.1.1.1.3,0,.4l-5.5,8.3c-.2.3.2.7.5.5l12.1-8.8c.2-.1.5,0,.5.2l1.6,4.3c0,.1,0,.3-.1.4l-3,2.3c-.1.1-.2.3,0,.5l1.3,2.1c0,.1,0,.3,0,.4l-5.9,6.1c-.1.1-.1.4,0,.5l1.5,1.5c.1.1.1.4,0,.5l-8.1,8.3s0,0-.1,0l-14.3,6.7s0,0,0,0l-8.2,8.2c-.1.1-.4.1-.5,0l-7.7-7.5c-.1-.1-.1-.3,0-.5Z"/>
    <path class="st1" d="M6.4,62l3.8-5.4c0,0,0-.1,0-.2l1.2-15.4s0,0,0-.1l5.9-10.8c.1-.2.4-.2.6,0l3.5,4.7c0,0,0,.2,0,.3l-2.4,7.3c0,.1,0,.2,0,.3l1.2,1.3c.2.2.4.1.6,0l3.2-5.5s0,0,0,0l15.4-13.7c.1-.1.3-.1.5,0l2.6,2.6c.1.1.1.3,0,.4l-5.5,8.3c-.2.3.2.7.5.5l12.1-8.8c.2-.1.5,0,.5.2l1.6,4.3c0,.1,0,.3-.1.4l-3,2.3c-.1.1-.2.3,0,.5l1.3,2.1c0,.1,0,.3,0,.4l-5.9,6.1c-.1.1-.1.4,0,.5l1.5,1.5c.1.1.1.4,0,.5l-8.1,8.3s0,0-.1,0l-14.3,6.7s0,0,0,0l-8.2,8.2c-.1.1-.4.1-.5,0l-7.7-7.5c-.1-.1-.1-.3,0-.5Z"/>
    <line class="st0" x1="39.4" y1="42.2" x2="48.8" y2="35"/>
    <line class="st0" x1="38.4" y1="49.4" x2="44.3" y2="43.8"/>
  </g>
  <g>
    <g>
      <path class="st2" d="M207.3,33.5h13.6c3.6,0,6.8.7,9.5,2.2,2.8,1.5,4.9,3.5,6.5,6.1,1.5,2.6,2.3,5.6,2.3,8.9s-.8,6.3-2.3,8.9c-1.5,2.6-3.7,4.7-6.5,6.1-2.8,1.5-6,2.2-9.5,2.2h-13.6v-34.5ZM220.7,65.8c3.2,0,6-.6,8.4-1.9,2.4-1.3,4.3-3,5.6-5.3,1.3-2.3,2-4.9,2-7.8s-.7-5.5-2-7.8-3.2-4-5.6-5.3c-2.4-1.3-5.2-1.9-8.4-1.9h-10.9v29.9h10.9Z"/>
      <path class="st2" d="M268.9,55.8h-22.1c0,2,.6,3.8,1.5,5.3,1,1.6,2.2,2.8,3.9,3.6,1.6.9,3.5,1.3,5.5,1.3s3.2-.3,4.7-.9c1.4-.6,2.6-1.5,3.6-2.7l1.4,1.6c-1.1,1.3-2.5,2.4-4.2,3.1-1.7.7-3.5,1.1-5.5,1.1s-4.8-.6-6.8-1.7c-2-1.1-3.6-2.7-4.7-4.6-1.1-2-1.7-4.2-1.7-6.7s.5-4.7,1.6-6.7c1.1-2,2.5-3.5,4.4-4.7,1.9-1.1,4-1.7,6.3-1.7s4.4.6,6.3,1.6c1.9,1.1,3.3,2.6,4.4,4.6,1.1,2,1.6,4.2,1.6,6.7v.7ZM251.8,45.5c-1.4.8-2.6,1.9-3.5,3.4-.9,1.5-1.4,3.1-1.5,4.9h19.7c0-1.8-.6-3.5-1.5-4.9-.9-1.4-2.1-2.6-3.5-3.4-1.4-.8-3.1-1.2-4.9-1.2s-3.4.4-4.9,1.2Z"/>
      <path class="st2" d="M277.1,67.3c-1.9-.6-3.3-1.4-4.4-2.4l1.1-2c1.1.9,2.4,1.6,4.1,2.2,1.7.6,3.4.9,5.2.9,2.6,0,4.5-.4,5.7-1.3s1.8-2,1.8-3.5-.3-1.9-1-2.6c-.7-.6-1.5-1.1-2.5-1.4-1-.3-2.3-.6-4.1-.9-2-.4-3.7-.8-4.9-1.2-1.2-.4-2.3-1.1-3.2-2.1-.9-1-1.3-2.3-1.3-3.9s.8-3.7,2.5-5c1.7-1.3,4.1-2,7.2-2s3.3.2,4.9.7c1.6.5,2.9,1.1,3.9,1.8l-1.1,2c-1.1-.8-2.2-1.3-3.6-1.7-1.3-.4-2.7-.6-4.1-.6-2.4,0-4.2.4-5.4,1.3-1.2.9-1.8,2.1-1.8,3.5s.3,2,1,2.7c.7.6,1.5,1.1,2.5,1.4,1,.3,2.4.6,4.2,1,2,.4,3.6.7,4.9,1.2,1.2.4,2.3,1.1,3.1,2s1.3,2.2,1.3,3.8-.9,3.8-2.7,5.1-4.3,1.9-7.5,1.9-4-.3-5.9-.9Z"/>
      <path class="st2" d="M299.9,35.5c-.4-.4-.6-.8-.6-1.4s.2-1,.6-1.4c.4-.4.9-.6,1.4-.6s1,.2,1.4.6c.4.4.6.8.6,1.4s-.2,1-.6,1.4c-.4.4-.9.6-1.4.6s-1-.2-1.4-.6ZM300.1,42.3h2.5v25.7h-2.5v-25.7Z"/>
      <path class="st2" d="M336.1,42.3v23c0,4.3-1,7.4-3.1,9.5-2.1,2-5.2,3.1-9.4,3.1s-4.6-.4-6.7-1.1c-2.1-.7-3.8-1.7-5.1-3l1.3-1.9c1.3,1.2,2.8,2.1,4.6,2.8,1.8.7,3.7,1,5.8,1,3.4,0,5.9-.8,7.6-2.4,1.6-1.6,2.5-4.1,2.5-7.6v-4.3c-1.1,1.9-2.5,3.3-4.4,4.3-1.9,1-4,1.5-6.3,1.5s-4.6-.5-6.5-1.6c-2-1.1-3.5-2.6-4.6-4.5-1.1-1.9-1.7-4.1-1.7-6.5s.6-4.5,1.7-6.5c1.1-1.9,2.7-3.4,4.6-4.4,2-1.1,4.1-1.6,6.5-1.6s4.5.5,6.4,1.6c1.9,1.1,3.4,2.5,4.4,4.4v-5.8h2.4ZM328.6,63.6c1.6-.9,2.9-2.1,3.8-3.6.9-1.6,1.4-3.3,1.4-5.3s-.5-3.8-1.4-5.3c-.9-1.5-2.2-2.7-3.8-3.6-1.6-.9-3.4-1.3-5.4-1.3s-3.8.4-5.4,1.3c-1.6.9-2.8,2.1-3.7,3.6-.9,1.5-1.4,3.3-1.4,5.3s.5,3.8,1.4,5.3c.9,1.6,2.2,2.8,3.7,3.6,1.6.9,3.4,1.3,5.4,1.3s3.8-.4,5.4-1.3Z"/>
      <path class="st2" d="M366.7,44.9c1.9,1.9,2.8,4.6,2.8,8.1v15h-2.5v-14.8c0-2.9-.7-5.1-2.2-6.6-1.5-1.5-3.5-2.3-6.1-2.3s-5.4.9-7.1,2.7c-1.7,1.8-2.6,4.2-2.6,7.3v13.7h-2.5v-25.7h2.4v5.6c.9-1.8,2.2-3.2,4-4.2,1.8-1,3.8-1.5,6.2-1.5s5.8.9,7.6,2.8Z"/>
      <path class="st2" d="M380.3,67.3c-1.9-.6-3.3-1.4-4.4-2.4l1.1-2c1.1.9,2.4,1.6,4.1,2.2,1.7.6,3.4.9,5.2.9,2.6,0,4.5-.4,5.7-1.3s1.8-2,1.8-3.5-.3-1.9-1-2.6c-.7-.6-1.5-1.1-2.5-1.4-1-.3-2.3-.6-4.1-.9-2-.4-3.7-.8-4.9-1.2-1.2-.4-2.3-1.1-3.2-2.1-.9-1-1.3-2.3-1.3-3.9s.8-3.7,2.5-5c1.7-1.3,4.1-2,7.2-2s3.3.2,4.9.7c1.6.5,2.9,1.1,3.9,1.8l-1.1,2c-1.1-.8-2.2-1.3-3.6-1.7-1.3-.4-2.7-.6-4.1-.6-2.4,0-4.2.4-5.4,1.3-1.2.9-1.8,2.1-1.8,3.5s.3,2,1,2.7c.7.6,1.5,1.1,2.5,1.4,1,.3,2.4.6,4.2,1,2,.4,3.6.7,4.9,1.2,1.2.4,2.3,1.1,3.1,2s1.3,2.2,1.3,3.8-.9,3.8-2.7,5.1c-1.8,1.3-4.3,1.9-7.5,1.9s-4-.3-5.9-.9Z"/>
    </g>
    <g>
      <path class="st3" d="M99,36.2l-3.2,7.7c-5.1-2.7-13.3-3.6-14.3-.3-.6,2.5,3,3,8.1,4,7.3,1.4,11.1,4.6,10.9,9.8,0,6.4-5.3,10.5-13,11.2-6.8.5-12.8-.7-17.1-3.2l3.4-7.7c4.2,2.4,9.6,3.6,14.2,2.7,1.3-.4,1.8-1.1,1.9-2,0-1.7-2.1-2.3-2.8-2.4-6.8-1.6-10.2-2.2-12.7-4.1-5.4-3.4-4.9-12.6,2-16.2,6.9-3.7,17-2.3,22.5.6Z"/>
      <path class="st3" d="M96.7,34.2h7.6s11.5,18.8,11.5,18.8l11.2-18.8h8.9s.1,33.7.1,33.7h-9.7v-16.9c-.1,0-8.3,13.8-8.3,13.8h-4.7l-8.2-13.1v16.2s-9.7,0-9.7,0v-.7c3.1-1.7,6.1-4.8,6.1-10,0-4-2.1-6.9-6.1-8.8v-3.8s.9.5.9.5l3.8-9.2c-1.1-.6-2.2-1.2-3.4-1.6Z"/>
      <path class="st3" d="M136.7,36v10c5.9-3.4,12.7-3,13.2,2.6-5.3-.2-10.1,0-13.1,1.3v17.5c5.1,2.5,12.3,1.3,14-5.7v6.1h10.6v-18.3c0-15.6-14.1-17-24.7-13.5ZM144.7,60.9c-1.8-.5-2.8-2.1-2.2-4.3.5-1.2,1.6-2,3.8-2h3.6s0,2.9,0,2.9c-.7,2.5-2.7,3.9-5.3,3.5Z"/>
      <path class="st3" d="M189.4,39.9l-6.7,6c-5-6.4-16.1-4.9-16.1,5.4s9.9,12.1,16.1,5l6.7,6c-5.2,7.2-19.2,8.9-27.2,2.5v-15.1c-.2-3.9-.9-7.3-2.5-9.8,6.7-8.6,23.3-8.4,29.7,0Z"/>
      <polygon class="st3" points="189.3 47.3 203.3 47.3 203.3 54.9 189.3 54.9 189.3 47.3"/>
    </g>
  </g>
</svg>