<?xml version="1.0" encoding="UTF-8"?>
<svg id="Layer_1" xmlns="http://www.w3.org/2000/svg" version="1.1" viewBox="0 0 792 612">
  <!-- Generator: Adobe Illustrator 29.3.1, SVG Export Plug-In . SVG Version: 2.1.0 Build 151)  -->
  <defs>
    <style>
      .st0 {
        stroke-linecap: round;
      }

      .st0, .st1 {
        fill: none;
        stroke: #dc7274;
        stroke-miterlimit: 10;
        stroke-width: 3px;
      }

      .st2 {
        fill: #f7f8f8;
      }
    </style>
  </defs>
  <g>
    <path class="st2" d="M280.4,342.5l17.4-24.8c.2-.2.3-.5.3-.8l5.4-71.1c0-.2,0-.5.2-.7l27.4-50c.6-1,2-1.1,2.7-.2l16.1,21.8c.3.4.4,1,.2,1.5l-11,33.8c-.2.5,0,1.1.3,1.6l5.4,6.1c.7.8,2.1.7,2.6-.3l14.5-25.2c0-.1.2-.3.3-.4l70.9-63.2c.6-.6,1.6-.5,2.2,0l12,11.9c.5.5.6,1.4.2,2l-25.2,38.3c-1,1.5.9,3.3,2.3,2.2l55.6-40.6c.9-.6,2.1-.3,2.5.8l7.2,20c.2.7,0,1.4-.5,1.8l-13.7,10.8c-.6.5-.8,1.4-.4,2.1l5.8,9.9c.4.6.3,1.4-.2,1.9l-27.3,28c-.6.6-.6,1.6,0,2.3l6.8,7c.6.6.6,1.6,0,2.3l-37.1,38.2c-.1.1-.3.3-.5.3l-66,31c-.2,0-.3.2-.5.3l-37.9,37.9c-.6.6-1.6.6-2.3,0l-35.7-34.5c-.6-.6-.7-1.4-.2-2.1Z"/>
    <path class="st1" d="M270.3,341.3l17.4-24.8c.2-.2.3-.5.3-.8l5.4-71.1c0-.2,0-.5.2-.7l27.4-50c.6-1,2-1.1,2.7-.2l16.1,21.8c.3.4.4,1,.2,1.5l-11,33.8c-.2.5,0,1.1.3,1.6l5.4,6.1c.7.8,2.1.7,2.6-.3l14.5-25.2c0-.1.2-.3.3-.4l70.9-63.2c.6-.6,1.6-.5,2.2,0l12,11.9c.5.5.6,1.4.2,2l-25.2,38.3c-1,1.5.9,3.3,2.3,2.2l55.6-40.6c.9-.6,2.1-.3,2.5.8l7.2,20c.2.7,0,1.4-.5,1.8l-13.7,10.8c-.6.5,0,1.8.5,2.5l5,9.5c.4.6.3,1.4-.2,1.9l-27.3,28c-.6.6-.6,1.6,0,2.3l6.8,7c.6.6.6,1.6,0,2.3l-37.1,38.2c-.1.1-.3.3-.5.3l-66,31c-.2,0-.3.2-.5.3l-37.9,37.9c-.6.6-1.6.6-2.3,0l-35.7-34.5c-.6-.6-.7-1.4-.2-2.1Z"/>
    <line class="st0" x1="422.3" y1="250.1" x2="465.7" y2="216.7"/>
    <line class="st0" x1="417.9" y1="283" x2="445" y2="257.2"/>
  </g>
  <g>
    <path class="st2" d="M245.4,416.1l-11.2,27c-18.1-9.4-46.9-12.8-50.2-1-2,8.6,10.4,10.4,28.6,14.1,25.6,4.8,39,16,38.4,34.6-.2,22.6-18.7,37.1-45.9,39.3-23.9,1.8-45.1-2.5-60.2-11.4l12.1-27.1c14.7,8.5,33.7,12.7,50,9.6,4.5-1.3,6.4-3.8,6.5-7,.3-5.9-7.6-8-9.8-8.6-23.8-5.5-36-7.7-44.7-14.3-18.8-12-17.2-44.2,7-57.1,24.4-12.9,59.8-8.1,79.3,2Z"/>
    <path class="st2" d="M237.1,409.2h26.8s40.5,66.3,40.5,66.3l39.4-66.2h31.3s.4,118.5.4,118.5h-34.3l-.4-59.4-28.7,48.4h-16.4l-28.8-46.3v57.2s-34.3,0-34.3,0v-2.3c10.9-6,21.5-16.8,21.4-35.3,0-14.1-7.3-24.4-21.4-31v-13.4s3.1,1.6,3.1,1.6l13.5-32.4c-3.8-2.2-7.8-4.2-12.1-5.7Z"/>
    <path class="st2" d="M378.1,415.5v35.2c20.6-12.1,44.8-10.5,46.3,9.3-18.8-.6-35.4.1-46.1,4.6v61.5c17.9,8.8,43.1,4.5,49.2-20.1v21.6h37.3v-64.4c-.3-55-49.5-59.9-86.8-47.7ZM406.1,503c-6.5-1.9-10-7.3-7.8-15.1,1.7-4.2,5.6-6.9,13.4-7.2h12.8s0,10.1,0,10.1c-2.5,8.7-9.5,13.9-18.5,12.2Z"/>
    <path class="st2" d="M563.6,429l-23.5,21.1c-17.6-22.4-56.8-17.3-56.8,19.1s34.9,42.8,56.6,17.6l23.6,21c-18.2,25.3-67.7,31.3-95.9,8.7v-53.1c-.6-13.9-3.1-25.8-8.7-34.5,23.6-30.3,82-29.5,104.6.2Z"/>
    <polygon class="st2" points="563.1 455.1 612.4 455.1 612.4 482 563.3 482 563.1 455.1"/>
  </g>
</svg>