<?xml version="1.0" encoding="UTF-8"?>
<svg id="Layer_1" xmlns="http://www.w3.org/2000/svg" version="1.1" viewBox="0 0 792 612">
  <!-- Generator: Adobe Illustrator 29.3.1, SVG Export Plug-In . SVG Version: 2.1.0 Build 151)  -->
  <defs>
    <style>
      .st0, .st1 {
        stroke-width: 1.9px;
      }

      .st0, .st1, .st2, .st3, .st4, .st5, .st6 {
        stroke-miterlimit: 10;
      }

      .st0, .st1, .st2, .st3, .st4, .st6 {
        fill: none;
      }

      .st0, .st1, .st4, .st5, .st6 {
        stroke: #353535;
      }

      .st0, .st3, .st4 {
        stroke-linecap: round;
      }

      .st2, .st3 {
        stroke: #f7f8f8;
        stroke-width: 1.3px;
      }

      .st7, .st5 {
        fill: #f7f8f8;
      }

      .st8 {
        fill: #5fc3af;
      }

      .st4, .st6 {
        stroke-width: 1.2px;
      }

      .st5 {
        stroke-width: 1.3px;
      }

      .st9 {
        fill: #353535;
      }

      .st10 {
        fill: #e37171;
      }

      .st11 {
        fill: #dc7274;
      }
    </style>
  </defs>
  <rect class="st7" x="1" y="305.5" width="792" height="308.5"/>
  <rect class="st8" x="1" y="-.5" width="394.6" height="308.5"/>
  <rect class="st8" x="1" y="568" width="199.2" height="44"/>
  <rect class="st10" x="198.6" y="568" width="199.2" height="44"/>
  <rect class="st9" x="396.2" y="568" width="199.2" height="44"/>
  <rect class="st5" x="593.8" y="568" width="199.2" height="44"/>
  <rect class="st9" x="397" y="-.5" width="394.6" height="308.5"/>
  <g>
    <g>
      <path class="st8" d="M42.6,456.5l6.9-9.8c0,0,.1-.2.1-.3l2.2-28.3c0,0,0-.2,0-.3l10.9-19.9c.2-.4.8-.5,1.1,0l6.4,8.7c.1.2.2.4,0,.6l-4.4,13.4c0,.2,0,.5.1.6l2.1,2.4c.3.3.8.3,1-.1l5.8-10c0,0,0-.1.1-.2l28.2-25.1c.3-.2.6-.2.9,0l4.8,4.7c.2.2.3.6,0,.8l-10,15.2c-.4.6.3,1.3.9.9l22.1-16.2c.3-.3.8-.1,1,.3l2.8,7.9c0,.3,0,.6-.2.7l-5.5,4.3c-.3.2-.3.6-.2.8l2.3,3.9c.1.2.1.6,0,.8l-10.8,11.1c-.2.3-.2.6,0,.9l2.7,2.8c.2.2.2.6,0,.9l-14.8,15.2c0,0-.1.1-.2.1l-26.3,12.3c0,0-.1,0-.2.1l-15.1,15.1c-.2.2-.6.3-.9,0l-14.2-13.7c-.2-.2-.3-.6,0-.8Z"/>
      <path class="st6" d="M38.6,456l6.9-9.8c0,0,.1-.2.1-.3l2.2-28.3c0,0,0-.2,0-.3l10.9-19.9c.2-.4.8-.5,1.1,0l6.4,8.7c.1.2.2.4,0,.6l-4.4,13.4c0,.2,0,.5.1.6l2.1,2.4c.3.3.8.3,1-.1l5.8-10c0,0,0-.1.1-.2l28.2-25.1c.3-.2.6-.2.9,0l4.8,4.7c.2.2.3.6,0,.8l-10,15.2c-.4.6.3,1.3.9.9l22.1-16.2c.3-.3.8-.1,1,.3l2.8,7.9c0,.3,0,.6-.2.7l-5.5,4.3c-.3.2-.3.6-.2.8l2.3,3.9c.1.2.1.6,0,.8l-10.8,11.1c-.2.3-.2.6,0,.9l2.7,2.8c.2.2.2.6,0,.9l-14.8,15.2c0,0-.1.1-.2.1l-26.3,12.3c0,0-.1,0-.2.1l-15.1,15.1c-.2.2-.6.3-.9,0l-14.2-13.7c-.2-.2-.3-.6,0-.8Z"/>
      <line class="st4" x1="99.1" y1="419.7" x2="116.3" y2="406.5"/>
      <line class="st4" x1="97.3" y1="432.8" x2="108.1" y2="422.5"/>
    </g>
    <g>
      <g>
        <path class="st9" d="M406.7,403.8h25c6.6,0,12.4,1.4,17.5,4.1,5.1,2.7,9,6.5,11.9,11.2,2.8,4.8,4.2,10.2,4.2,16.3s-1.4,11.5-4.2,16.3c-2.8,4.8-6.8,8.5-11.9,11.2-5.1,2.7-10.9,4.1-17.5,4.1h-25v-63.2ZM431.3,462.9c5.8,0,11-1.2,15.4-3.5,4.5-2.3,7.9-5.6,10.3-9.7,2.4-4.2,3.6-8.9,3.6-14.3s-1.2-10.1-3.6-14.3c-2.4-4.2-5.8-7.4-10.3-9.7-4.5-2.3-9.6-3.5-15.4-3.5h-20v54.9h20Z"/>
        <path class="st9" d="M519.6,444.5h-40.5c.1,3.7,1.1,6.9,2.8,9.8,1.7,2.9,4.1,5.1,7.1,6.6,3,1.6,6.3,2.3,10.1,2.3s5.9-.6,8.5-1.7c2.6-1.1,4.8-2.8,6.5-4.9l2.6,3c-2,2.5-4.6,4.4-7.7,5.7-3.1,1.3-6.5,2-10.1,2s-8.9-1-12.5-3.1c-3.7-2-6.5-4.9-8.6-8.5-2.1-3.6-3.1-7.7-3.1-12.4s1-8.7,2.9-12.3c2-3.6,4.6-6.5,8.1-8.5,3.4-2,7.3-3.1,11.6-3.1s8.1,1,11.5,3c3.4,2,6.1,4.8,8,8.4,2,3.6,2.9,7.7,2.9,12.3v1.3ZM488.3,425.7c-2.6,1.5-4.8,3.6-6.4,6.2-1.6,2.7-2.5,5.7-2.8,9.1h36.1c-.2-3.4-1.1-6.4-2.7-9-1.6-2.6-3.8-4.7-6.4-6.2-2.6-1.5-5.6-2.3-8.9-2.3s-6.3.7-8.9,2.2Z"/>
        <path class="st9" d="M534.7,465.7c-3.4-1.1-6.1-2.6-8-4.3l2.1-3.6c1.9,1.6,4.4,3,7.4,4.1,3,1.1,6.2,1.6,9.5,1.6,4.8,0,8.3-.8,10.5-2.3,2.3-1.6,3.4-3.7,3.4-6.5s-.6-3.5-1.9-4.7c-1.2-1.1-2.8-2-4.6-2.5-1.8-.5-4.3-1.1-7.5-1.7-3.7-.7-6.7-1.4-9-2.2-2.3-.8-4.2-2-5.9-3.8-1.6-1.7-2.4-4.2-2.4-7.2s1.5-6.8,4.6-9.2c3.1-2.4,7.5-3.7,13.2-3.7s6,.4,8.9,1.3c2.9.8,5.4,2,7.2,3.3l-2.1,3.6c-1.9-1.4-4.1-2.4-6.6-3.2-2.5-.7-5-1.1-7.6-1.1-4.4,0-7.7.8-9.9,2.4-2.2,1.6-3.3,3.8-3.3,6.4s.6,3.7,1.9,4.9c1.3,1.2,2.8,2,4.6,2.6,1.8.6,4.4,1.2,7.7,1.9,3.7.7,6.6,1.4,8.9,2.1,2.3.8,4.2,2,5.7,3.7,1.6,1.7,2.3,4,2.3,6.9s-1.6,7-4.9,9.4c-3.2,2.3-7.8,3.5-13.7,3.5s-7.4-.6-10.8-1.7Z"/>
        <path class="st9" d="M576.4,407.4c-.7-.7-1.1-1.5-1.1-2.6s.4-1.9,1.1-2.6c.7-.7,1.6-1.1,2.6-1.1s1.9.3,2.6,1c.7.7,1.1,1.5,1.1,2.6s-.4,1.9-1.1,2.6c-.7.7-1.6,1.1-2.6,1.1s-1.9-.3-2.6-1ZM576.8,419.9h4.5v47.1h-4.5v-47.1Z"/>
        <path class="st9" d="M642.8,419.9v42.1c0,7.8-1.9,13.6-5.7,17.3-3.8,3.7-9.5,5.6-17.1,5.6s-8.4-.7-12.3-2c-3.9-1.3-6.9-3.2-9.3-5.5l2.4-3.4c2.3,2.2,5.2,3.8,8.5,5.1,3.3,1.2,6.8,1.8,10.6,1.8,6.3,0,10.9-1.5,13.9-4.5,3-3,4.5-7.6,4.5-13.9v-7.9c-1.9,3.4-4.6,6.1-8,7.9-3.4,1.9-7.3,2.8-11.6,2.8s-8.4-1-12-2.9c-3.6-2-6.4-4.7-8.4-8.2-2-3.5-3.1-7.4-3.1-11.8s1-8.3,3.1-11.8c2-3.5,4.9-6.2,8.4-8.1,3.6-1.9,7.6-2.9,12-2.9s8.2,1,11.7,2.9c3.5,1.9,6.2,4.6,8,8.1v-10.6h4.3ZM629,458.9c2.9-1.6,5.2-3.8,6.9-6.7,1.7-2.9,2.5-6.1,2.5-9.8s-.8-6.9-2.5-9.7c-1.7-2.8-4-5-6.9-6.6-2.9-1.6-6.3-2.4-9.9-2.4s-7,.8-9.9,2.4c-2.9,1.6-5.2,3.8-6.9,6.6-1.7,2.8-2.5,6.1-2.5,9.7s.8,6.9,2.5,9.8c1.7,2.9,3.9,5.1,6.9,6.7,2.9,1.6,6.2,2.4,9.9,2.4s7-.8,9.9-2.4Z"/>
        <path class="st9" d="M698.9,424.7c3.4,3.4,5.1,8.4,5.1,14.8v27.5h-4.5v-27.2c0-5.3-1.3-9.3-4-12.1-2.7-2.8-6.4-4.2-11.2-4.2s-9.9,1.7-13.1,5c-3.2,3.3-4.8,7.8-4.8,13.4v25.1h-4.5v-47.1h4.3v10.2c1.6-3.3,4-5.9,7.3-7.8,3.2-1.9,7-2.8,11.4-2.8s10.6,1.7,14,5.1Z"/>
        <path class="st9" d="M723.7,465.7c-3.4-1.1-6.1-2.6-8-4.3l2.1-3.6c1.9,1.6,4.4,3,7.4,4.1,3,1.1,6.2,1.6,9.5,1.6,4.8,0,8.3-.8,10.5-2.3s3.4-3.7,3.4-6.5-.6-3.5-1.9-4.7c-1.2-1.1-2.8-2-4.6-2.5-1.8-.5-4.3-1.1-7.5-1.7-3.7-.7-6.7-1.4-9-2.2-2.3-.8-4.2-2-5.9-3.8-1.6-1.7-2.4-4.2-2.4-7.2s1.5-6.8,4.6-9.2c3.1-2.4,7.5-3.7,13.2-3.7s6,.4,8.9,1.3c2.9.8,5.4,2,7.2,3.3l-2.1,3.6c-1.9-1.4-4.1-2.4-6.6-3.2-2.5-.7-5-1.1-7.6-1.1-4.4,0-7.7.8-9.9,2.4-2.2,1.6-3.3,3.8-3.3,6.4s.6,3.7,1.9,4.9c1.3,1.2,2.8,2,4.6,2.6,1.8.6,4.4,1.2,7.7,1.9,3.7.7,6.6,1.4,8.9,2.1,2.3.8,4.2,2,5.7,3.7s2.3,4,2.3,6.9-1.6,7-4.9,9.4c-3.2,2.3-7.8,3.5-13.7,3.5s-7.4-.6-10.8-1.7Z"/>
      </g>
      <g>
        <path class="st8" d="M208.3,408.7l-5.8,14c-9.4-4.9-24.4-6.7-26.1-.5-1.1,4.5,5.4,5.4,14.9,7.3,13.3,2.5,20.3,8.4,20,18,0,11.7-9.8,19.3-23.9,20.4-12.5.9-23.5-1.3-31.4-5.9l6.3-14.1c7.6,4.4,17.5,6.6,26,5,2.3-.7,3.4-2,3.4-3.7.1-3-3.9-4.2-5.1-4.5-12.4-2.9-18.8-4-23.3-7.5-9.8-6.3-9-23,3.7-29.7,12.7-6.7,31.1-4.2,41.3,1.1Z"/>
        <path class="st8" d="M204,405.1h14s21.1,34.5,21.1,34.5l20.5-34.5h16.3s.2,61.7.2,61.7h-17.9l-.2-30.9-15,25.2h-8.5l-15-24.1v29.8s-17.9,0-17.9,0v-1.2c5.7-3.1,11.2-8.8,11.1-18.4,0-7.3-3.8-12.7-11.1-16.2v-7s1.6.8,1.6.8l7-16.9c-2-1.2-4.1-2.2-6.3-3Z"/>
        <path class="st8" d="M277.4,408.4v18.4c10.7-6.3,23.3-5.4,24.1,4.8-9.8-.3-18.4,0-24,2.4v32c9.3,4.6,22.5,2.3,25.6-10.5v11.3h19.4v-33.5c-.1-28.6-25.8-31.2-45.2-24.8ZM292,454c-3.4-1-5.2-3.8-4-7.9.9-2.2,2.9-3.6,7-3.7h6.7s0,5.2,0,5.2c-1.3,4.5-5,7.2-9.6,6.4Z"/>
        <path class="st8" d="M374,415.4l-12.2,11c-9.1-11.7-29.5-9-29.5,9.9s18.2,22.3,29.5,9.2l12.3,10.9c-9.5,13.2-35.2,16.3-49.9,4.5v-27.6c-.3-7.2-1.6-13.4-4.5-18,12.3-15.8,42.7-15.4,54.5,0Z"/>
        <polygon class="st8" points="373.7 429 399.4 429 399.4 443.1 373.8 443.1 373.7 429"/>
      </g>
    </g>
  </g>
  <g>
    <g>
      <path class="st10" d="M545.6,116.6l6.9-9.8c0,0,.1-.2.1-.3l2.1-28.2c0,0,0-.2,0-.3l10.9-19.9c.2-.4.8-.5,1.1,0l6.4,8.7c.1.2.2.4,0,.6l-4.4,13.4c0,.2,0,.5.1.6l2.1,2.4c.3.3.8.3,1-.1l5.8-10c0,0,0-.1.1-.2l28.2-25.1c.3-.2.6-.2.9,0l4.8,4.7c.2.2.3.6,0,.8l-10,15.2c-.4.6.3,1.3.9.9l22.1-16.1c.3-.3.8-.1,1,.3l2.8,7.9c0,.3,0,.6-.2.7l-5.5,4.3c-.3.2-.3.6-.2.8l2.3,3.9c.1.2.1.6,0,.8l-10.8,11.1c-.2.3-.2.6,0,.9l2.7,2.8c.2.2.2.6,0,.9l-14.8,15.2c0,0-.1.1-.2.1l-26.2,12.3c0,0-.1,0-.2.1l-15.1,15.1c-.2.2-.6.3-.9,0l-14.2-13.7c-.2-.2-.3-.6,0-.8Z"/>
      <path class="st2" d="M541.6,116.1l6.9-9.8c0,0,.1-.2.1-.3l2.1-28.2c0,0,0-.2,0-.3l10.9-19.9c.2-.4.8-.5,1.1,0l6.4,8.7c.1.2.2.4,0,.6l-4.4,13.4c0,.2,0,.5.1.6l2.1,2.4c.3.3.8.3,1-.1l5.8-10c0,0,0-.1.1-.2l28.2-25.1c.3-.2.6-.2.9,0l4.8,4.7c.2.2.3.6,0,.8l-10,15.2c-.4.6.3,1.3.9.9l22.1-16.1c.3-.3.8-.1,1,.3l2.8,7.9c0,.3,0,.6-.2.7l-5.5,4.3c-.3.2-.3.6-.2.8l2.3,3.9c.1.2.1.6,0,.8l-10.8,11.1c-.2.3-.2.6,0,.9l2.7,2.8c.2.2.2.6,0,.9l-14.8,15.2c0,0-.1.1-.2.1l-26.2,12.3c0,0-.1,0-.2.1l-15.1,15.1c-.2.2-.6.3-.9,0l-14.2-13.7c-.2-.2-.3-.6,0-.8Z"/>
      <line class="st3" x1="602" y1="79.9" x2="619.2" y2="66.6"/>
      <line class="st3" x1="600.2" y1="93" x2="611" y2="82.7"/>
    </g>
    <g>
      <g>
        <path class="st7" d="M469.8,216.7h8.6c2.3,0,4.3.5,6,1.6,1.7,1.1,3.1,2.5,4.1,4.4,1,1.9,1.5,4,1.5,6.4s-.5,4.5-1.5,6.4c-1,1.9-2.3,3.3-4.1,4.4-1.7,1.1-3.7,1.6-6,1.6h-8.6v-24.7ZM478.3,239.7c2,0,3.8-.5,5.3-1.4,1.5-.9,2.7-2.2,3.5-3.8.8-1.6,1.2-3.5,1.2-5.6s-.4-3.9-1.2-5.6c-.8-1.6-2-2.9-3.5-3.8-1.5-.9-3.3-1.4-5.3-1.4h-6.9v21.4h6.9Z"/>
        <path class="st7" d="M527.3,232.6h-13.9c0,1.4.4,2.7,1,3.8.6,1.1,1.4,2,2.4,2.6,1,.6,2.2.9,3.5.9s2-.2,2.9-.7,1.6-1.1,2.2-1.9l.9,1.2c-.7,1-1.6,1.7-2.7,2.2-1.1.5-2.2.8-3.5.8s-3.1-.4-4.3-1.2c-1.3-.8-2.2-1.9-3-3.3-.7-1.4-1.1-3-1.1-4.8s.3-3.4,1-4.8c.7-1.4,1.6-2.5,2.8-3.3,1.2-.8,2.5-1.2,4-1.2s2.8.4,4,1.2c1.2.8,2.1,1.9,2.8,3.3.7,1.4,1,3,1,4.8v.5ZM516.5,225.2c-.9.6-1.6,1.4-2.2,2.4-.5,1-.9,2.2-.9,3.5h12.4c0-1.3-.4-2.5-.9-3.5-.6-1-1.3-1.8-2.2-2.4-.9-.6-1.9-.9-3.1-.9s-2.2.3-3.1.9Z"/>
        <path class="st7" d="M551.1,240.8c-1.2-.4-2.1-1-2.8-1.7l.7-1.4c.7.6,1.5,1.2,2.6,1.6,1,.4,2.1.6,3.3.6,1.6,0,2.8-.3,3.6-.9.8-.6,1.2-1.5,1.2-2.5s-.2-1.4-.6-1.8c-.4-.4-.9-.8-1.6-1-.6-.2-1.5-.4-2.6-.7-1.3-.3-2.3-.5-3.1-.8s-1.5-.8-2-1.5-.8-1.6-.8-2.8.5-2.7,1.6-3.6c1.1-1,2.6-1.4,4.5-1.4s2.1.2,3.1.5c1,.3,1.8.8,2.5,1.3l-.7,1.4c-.7-.5-1.4-1-2.3-1.2-.8-.3-1.7-.4-2.6-.4-1.5,0-2.6.3-3.4,1-.8.6-1.1,1.5-1.1,2.5s.2,1.5.7,1.9c.4.5,1,.8,1.6,1,.6.2,1.5.5,2.7.7,1.3.3,2.3.5,3.1.8.8.3,1.4.8,2,1.4.5.7.8,1.6.8,2.7s-.6,2.7-1.7,3.7c-1.1.9-2.7,1.4-4.7,1.4s-2.5-.2-3.7-.7Z"/>
        <path class="st7" d="M584,218.1c-.2-.3-.4-.6-.4-1s.1-.7.4-1c.2-.3.5-.4.9-.4s.7.1.9.4c.2.3.4.6.4,1s-.1.7-.4,1c-.2.3-.5.4-.9.4s-.7-.1-.9-.4ZM584.2,223h1.6v18.4h-1.6v-18.4Z"/>
        <path class="st7" d="M625.5,223v16.4c0,3.1-.7,5.3-2,6.8-1.3,1.5-3.3,2.2-5.9,2.2s-2.9-.3-4.2-.8c-1.3-.5-2.4-1.2-3.2-2.2l.8-1.3c.8.8,1.8,1.5,2.9,2,1.1.5,2.3.7,3.6.7,2.2,0,3.7-.6,4.8-1.7,1-1.2,1.6-3,1.6-5.4v-3.1c-.7,1.3-1.6,2.4-2.8,3.1-1.2.7-2.5,1.1-4,1.1s-2.9-.4-4.1-1.1c-1.2-.8-2.2-1.8-2.9-3.2-.7-1.4-1.1-2.9-1.1-4.6s.4-3.3,1.1-4.6c.7-1.4,1.7-2.4,2.9-3.2,1.2-.8,2.6-1.1,4.1-1.1s2.8.4,4,1.1c1.2.8,2.1,1.8,2.8,3.2v-4.2h1.5ZM620.7,238.2c1-.6,1.8-1.5,2.4-2.6.6-1.1.9-2.4.9-3.8s-.3-2.7-.9-3.8c-.6-1.1-1.4-2-2.4-2.6-1-.6-2.2-.9-3.4-.9s-2.4.3-3.4.9c-1,.6-1.8,1.5-2.4,2.6-.6,1.1-.9,2.4-.9,3.8s.3,2.7.9,3.8c.6,1.1,1.4,2,2.4,2.6,1,.6,2.1.9,3.4.9s2.4-.3,3.4-.9Z"/>
        <path class="st7" d="M663.4,224.8c1.2,1.3,1.8,3.3,1.8,5.8v10.8h-1.6v-10.6c0-2.1-.5-3.6-1.4-4.7-.9-1.1-2.2-1.6-3.9-1.6s-3.4.6-4.5,1.9c-1.1,1.3-1.6,3-1.6,5.2v9.8h-1.6v-18.4h1.5v4c.6-1.3,1.4-2.3,2.5-3,1.1-.7,2.4-1.1,3.9-1.1s3.6.7,4.8,2Z"/>
        <path class="st7" d="M690.5,240.8c-1.2-.4-2.1-1-2.8-1.7l.7-1.4c.7.6,1.5,1.2,2.6,1.6,1,.4,2.1.6,3.3.6,1.6,0,2.8-.3,3.6-.9.8-.6,1.2-1.5,1.2-2.5s-.2-1.4-.6-1.8c-.4-.4-.9-.8-1.6-1-.6-.2-1.5-.4-2.6-.7-1.3-.3-2.3-.5-3.1-.8-.8-.3-1.5-.8-2-1.5s-.8-1.6-.8-2.8.5-2.7,1.6-3.6c1.1-1,2.6-1.4,4.5-1.4s2.1.2,3.1.5c1,.3,1.8.8,2.5,1.3l-.7,1.4c-.7-.5-1.4-1-2.3-1.2-.8-.3-1.7-.4-2.6-.4-1.5,0-2.6.3-3.4,1-.8.6-1.1,1.5-1.1,2.5s.2,1.5.7,1.9c.4.5,1,.8,1.6,1,.6.2,1.5.5,2.7.7,1.3.3,2.3.5,3.1.8.8.3,1.4.8,2,1.4.5.7.8,1.6.8,2.7s-.6,2.7-1.7,3.7c-1.1.9-2.7,1.4-4.7,1.4s-2.5-.2-3.7-.7Z"/>
      </g>
      <g>
        <path class="st11" d="M519.4,150.2l-5.5,13.3c-8.9-4.6-23.1-6.3-24.7-.5-1,4.3,5.1,5.1,14.1,6.9,12.6,2.4,19.2,7.9,18.9,17.1,0,11.1-9.2,18.3-22.6,19.3-11.8.9-22.2-1.3-29.7-5.6l6-13.4c7.2,4.2,16.6,6.2,24.6,4.7,2.2-.7,3.2-1.9,3.2-3.5.1-2.9-3.7-3.9-4.8-4.2-11.7-2.7-17.7-3.8-22-7.1-9.3-5.9-8.5-21.8,3.5-28.1,12-6.4,29.5-4,39.1,1Z"/>
        <path class="st11" d="M515.3,146.8h13.2s20,32.6,20,32.6l19.4-32.6h15.4s.2,58.4.2,58.4h-16.9l-.2-29.3-14.1,23.9h-8.1l-14.2-22.8v28.2s-16.9,0-16.9,0v-1.1c5.4-2.9,10.6-8.3,10.5-17.4,0-6.9-3.6-12-10.5-15.3v-6.6s1.5.8,1.5.8l6.7-16c-1.9-1.1-3.8-2.1-6-2.8Z"/>
        <path class="st11" d="M584.8,149.9v17.4c10.2-6,22.1-5.2,22.8,4.6-9.2-.3-17.5,0-22.7,2.3v30.3c8.8,4.3,21.2,2.2,24.3-9.9v10.7h18.4v-31.7c-.1-27.1-24.4-29.5-42.8-23.5ZM598.6,193c-3.2-.9-4.9-3.6-3.8-7.4.8-2.1,2.7-3.4,6.6-3.5h6.3s0,5,0,5c-1.2,4.3-4.7,6.8-9.1,6Z"/>
        <path class="st11" d="M676.1,156.6l-11.6,10.4c-8.7-11-28-8.5-28,9.4s17.2,21.1,27.9,8.7l11.6,10.3c-8.9,12.5-33.3,15.4-47.2,4.3v-26.1c-.3-6.8-1.5-12.7-4.3-17,11.6-14.9,40.4-14.5,51.5,0Z"/>
        <polygon class="st11" points="675.9 169.4 700.2 169.4 700.2 182.7 676 182.7 675.9 169.4"/>
      </g>
    </g>
  </g>
  <g>
    <g>
      <path class="st7" d="M143,142.1l11-15.7c.1-.2.2-.3.2-.5l3.4-45c0-.1,0-.3.1-.4l17.3-31.6c.4-.7,1.3-.7,1.7-.1l10.2,13.8c.2.3.3.6.1.9l-7,21.4c-.1.3,0,.7.2,1l3.4,3.8c.5.5,1.3.4,1.7-.2l9.2-15.9c0,0,.1-.2.2-.3l44.9-40c.4-.4,1-.3,1.4,0l7.6,7.5c.3.3.4.9.1,1.3l-15.9,24.3c-.6,1,.5,2.1,1.5,1.4l35.2-25.7c.6-.4,1.3-.2,1.6.5l4.5,12.7c.1.4,0,.9-.3,1.2l-8.7,6.8c-.4.3-.5.9-.3,1.3l3.7,6.3c.2.4.2.9-.1,1.2l-17.3,17.7c-.4.4-.4,1,0,1.4l4.3,4.4c.4.4.4,1,0,1.4l-23.5,24.2c0,0-.2.2-.3.2l-41.8,19.6c-.1,0-.2.1-.3.2l-24,24c-.4.4-1,.4-1.4,0l-22.6-21.8c-.4-.4-.4-.9-.1-1.3Z"/>
      <path class="st1" d="M136.7,141.3l11-15.7c.1-.2.2-.3.2-.5l3.4-45c0-.1,0-.3.1-.4l17.3-31.6c.4-.7,1.3-.7,1.7-.1l10.2,13.8c.2.3.3.6.1.9l-7,21.4c-.1.3,0,.7.2,1l3.4,3.8c.5.5,1.3.4,1.7-.2l9.2-15.9c0,0,.1-.2.2-.3l44.9-40c.4-.4,1-.3,1.4,0l7.6,7.5c.3.3.4.9.1,1.3l-15.9,24.3c-.6,1,.5,2.1,1.5,1.4l35.2-25.7c.6-.4,1.3-.2,1.6.5l4.5,12.7c.1.4,0,.9-.3,1.2l-8.7,6.8c-.4.3,0,1.2.3,1.6l3.2,6c.2.4.2.9-.1,1.2l-17.3,17.7c-.4.4-.4,1,0,1.4l4.3,4.4c.4.4.4,1,0,1.4l-23.5,24.2c0,0-.2.2-.3.2l-41.8,19.6c-.1,0-.2.1-.3.2l-24,24c-.4.4-1,.4-1.4,0l-22.6-21.8c-.4-.4-.4-.9-.1-1.3Z"/>
      <line class="st0" x1="232.9" y1="83.6" x2="260.3" y2="62.5"/>
      <line class="st0" x1="230.1" y1="104.5" x2="247.3" y2="88.1"/>
    </g>
    <g>
      <path class="st7" d="M120.9,188.7l-7.1,17.1c-11.4-6-29.7-8.1-31.8-.6-1.3,5.5,6.6,6.6,18.1,8.9,16.2,3.1,24.7,10.2,24.3,21.9-.1,14.3-11.9,23.5-29.1,24.9-15.2,1.1-28.6-1.6-38.1-7.2l7.7-17.2c9.3,5.4,21.3,8,31.6,6.1,2.8-.9,4.1-2.4,4.1-4.5.2-3.7-4.8-5.1-6.2-5.4-15.1-3.5-22.8-4.9-28.3-9.1-11.9-7.6-10.9-28,4.5-36.1,15.5-8.2,37.9-5.1,50.2,1.3Z"/>
      <path class="st7" d="M115.6,184.3h17s25.6,41.9,25.6,41.9l24.9-41.9h19.8s.2,75,.2,75h-21.7l-.2-37.6-18.2,30.7h-10.4l-18.2-29.3v36.2s-21.7,0-21.7,0v-1.5c6.9-3.8,13.6-10.7,13.5-22.4,0-8.9-4.6-15.5-13.5-19.7v-8.5s2,1,2,1l8.6-20.5c-2.4-1.4-4.9-2.6-7.7-3.6Z"/>
      <path class="st7" d="M204.9,188.3v22.3c13.1-7.7,28.4-6.6,29.3,5.9-11.9-.4-22.4,0-29.2,2.9v38.9c11.4,5.6,27.3,2.8,31.2-12.7v13.7h23.6v-40.8c-.2-34.8-31.3-37.9-54.9-30.2ZM222.6,243.7c-4.1-1.2-6.3-4.6-4.9-9.6,1.1-2.6,3.5-4.4,8.5-4.5h8.1s0,6.4,0,6.4c-1.6,5.5-6,8.8-11.7,7.7Z"/>
      <path class="st7" d="M322.3,196.9l-14.9,13.3c-11.1-14.2-35.9-11-35.9,12.1s22.1,27.1,35.8,11.1l15,13.3c-11.5,16-42.8,19.8-60.7,5.5v-33.6c-.4-8.8-1.9-16.3-5.5-21.9,15-19.2,51.9-18.7,66.2.1Z"/>
      <polygon class="st7" points="322 213.4 353.2 213.4 353.2 230.4 322.1 230.4 322 213.4"/>
    </g>
  </g>
</svg>