<?xml version="1.0" encoding="UTF-8"?>
<svg id="Layer_1" xmlns="http://www.w3.org/2000/svg" version="1.1" viewBox="0 0 792 612">
  <!-- Generator: Adobe Illustrator 29.3.1, SVG Export Plug-In . SVG Version: 2.1.0 Build 151)  -->
  <defs>
    <style>
      .st0 {
        fill: #f7f8f8;
      }

      .st1 {
        stroke-linecap: round;
      }

      .st1, .st2 {
        fill: none;
        stroke: #f7f8f8;
        stroke-miterlimit: 10;
      }

      .st3 {
        fill: #e37171;
      }
    </style>
  </defs>
  <g>
    <path class="st3" d="M106.3,321.3l5.8-8.3c0,0,0-.2,0-.3l1.8-23.8c0,0,0-.2,0-.2l9.2-16.8c.2-.3.7-.4.9,0l5.4,7.3c.1.1.1.3,0,.5l-3.7,11.3c0,.2,0,.4.1.5l1.8,2c.2.3.7.2.9,0l4.9-8.4c0,0,0,0,.1-.1l23.8-21.2c.2-.2.5-.2.7,0l4,4c.2.2.2.5,0,.7l-8.4,12.8c-.3.5.3,1.1.8.7l18.6-13.6c.3-.2.7,0,.8.3l2.4,6.7c0,.2,0,.5-.2.6l-4.6,3.6c-.2.2-.3.5-.1.7l2,3.3c.1.2,0,.5,0,.7l-9.1,9.4c-.2.2-.2.5,0,.8l2.3,2.3c.2.2.2.5,0,.8l-12.5,12.8s0,0-.2.1l-22.1,10.4c0,0-.1,0-.2.1l-12.7,12.7c-.2.2-.5.2-.8,0l-12-11.6c-.2-.2-.2-.5,0-.7Z"/>
    <path class="st2" d="M103,320.9l5.8-8.3c0,0,0-.2,0-.3l1.8-23.8c0,0,0-.2,0-.2l9.2-16.8c.2-.3.7-.4.9,0l5.4,7.3c.1.1.1.3,0,.5l-3.7,11.3c0,.2,0,.4.1.5l1.8,2c.2.3.7.2.9,0l4.9-8.4c0,0,0,0,.1-.1l23.8-21.2c.2-.2.5-.2.7,0l4,4c.2.2.2.5,0,.7l-8.4,12.8c-.3.5.3,1.1.8.7l18.6-13.6c.3-.2.7,0,.8.3l2.4,6.7c0,.2,0,.5-.2.6l-4.6,3.6c-.2.2-.3.5-.1.7l2,3.3c.1.2,0,.5,0,.7l-9.1,9.4c-.2.2-.2.5,0,.8l2.3,2.3c.2.2.2.5,0,.8l-12.5,12.8s0,0-.2.1l-22.1,10.4c0,0-.1,0-.2.1l-12.7,12.7c-.2.2-.5.2-.8,0l-12-11.6c-.2-.2-.2-.5,0-.7Z"/>
    <line class="st1" x1="153.9" y1="290.3" x2="168.5" y2="279.1"/>
    <line class="st1" x1="152.5" y1="301.3" x2="161.6" y2="292.7"/>
  </g>
  <g>
    <g>
      <path class="st0" d="M413.4,276.9h21.1c5.5,0,10.4,1.1,14.7,3.4,4.3,2.3,7.6,5.4,10,9.5,2.4,4,3.6,8.6,3.6,13.7s-1.2,9.7-3.6,13.7c-2.4,4-5.7,7.2-10,9.5-4.3,2.3-9.2,3.4-14.7,3.4h-21.1v-53.3ZM434.1,326.7c4.9,0,9.3-1,13-2.9,3.8-2,6.6-4.7,8.7-8.2,2-3.5,3-7.5,3-12s-1-8.5-3-12-4.9-6.2-8.7-8.2c-3.8-2-8.1-2.9-13-2.9h-16.9v46.3h16.9Z"/>
      <path class="st0" d="M508.6,311.2h-34.2c.1,3.1.9,5.8,2.4,8.3,1.5,2.4,3.5,4.3,6,5.6,2.5,1.3,5.3,2,8.5,2s5-.5,7.2-1.4c2.2-.9,4-2.3,5.5-4.1l2.2,2.5c-1.7,2.1-3.9,3.7-6.5,4.8-2.6,1.1-5.4,1.7-8.5,1.7s-7.5-.9-10.6-2.6c-3.1-1.7-5.5-4.1-7.3-7.2-1.7-3-2.6-6.5-2.6-10.4s.8-7.3,2.5-10.4c1.6-3.1,3.9-5.5,6.8-7.2,2.9-1.7,6.1-2.6,9.7-2.6s6.8.9,9.7,2.5c2.9,1.7,5.1,4.1,6.8,7.1,1.6,3,2.5,6.5,2.5,10.3v1.1ZM482.2,295.4c-2.2,1.2-4,3-5.4,5.3-1.3,2.3-2.1,4.8-2.3,7.6h30.4c-.2-2.8-.9-5.4-2.3-7.6-1.4-2.2-3.2-4-5.4-5.3-2.2-1.3-4.7-1.9-7.5-1.9s-5.3.6-7.5,1.9Z"/>
      <path class="st0" d="M521.4,329c-2.9-1-5.1-2.2-6.8-3.7l1.8-3c1.6,1.4,3.7,2.5,6.3,3.4,2.6.9,5.2,1.4,8,1.4,4,0,7-.7,8.9-2,1.9-1.3,2.9-3.1,2.9-5.5s-.5-3-1.6-4c-1-1-2.3-1.7-3.8-2.1-1.5-.5-3.6-.9-6.3-1.4-3.1-.6-5.7-1.2-7.6-1.8-1.9-.7-3.6-1.7-4.9-3.2-1.4-1.5-2.1-3.5-2.1-6.1s1.3-5.7,3.9-7.8c2.6-2.1,6.3-3.1,11.1-3.1s5,.4,7.5,1.1c2.5.7,4.5,1.6,6.1,2.8l-1.7,3c-1.6-1.2-3.5-2.1-5.6-2.7-2.1-.6-4.2-.9-6.4-.9-3.7,0-6.5.7-8.4,2.1-1.9,1.4-2.8,3.2-2.8,5.4s.5,3.2,1.6,4.1c1.1,1,2.4,1.7,3.9,2.2,1.5.5,3.7,1,6.5,1.6,3.1.6,5.6,1.2,7.5,1.8,1.9.6,3.5,1.7,4.8,3.1s2,3.4,2,5.9-1.4,5.9-4.1,7.9-6.6,3-11.6,3-6.2-.5-9.1-1.4Z"/>
      <path class="st0" d="M556.5,279.9c-.6-.6-.9-1.3-.9-2.2s.3-1.6.9-2.2c.6-.6,1.3-.9,2.2-.9s1.6.3,2.2.9c.6.6.9,1.3.9,2.2s-.3,1.6-.9,2.2c-.6.6-1.3.9-2.2.9s-1.6-.3-2.2-.9ZM556.8,290.5h3.8v39.7h-3.8v-39.7Z"/>
      <path class="st0" d="M612.5,290.5v35.5c0,6.6-1.6,11.5-4.8,14.6-3.2,3.1-8,4.7-14.5,4.7s-7.1-.6-10.4-1.7c-3.2-1.1-5.9-2.7-7.8-4.6l2.1-2.9c2,1.8,4.4,3.2,7.2,4.3,2.8,1,5.8,1.5,8.9,1.5,5.3,0,9.2-1.3,11.7-3.8,2.5-2.5,3.8-6.4,3.8-11.7v-6.7c-1.6,2.9-3.9,5.1-6.8,6.7-2.9,1.6-6.1,2.4-9.7,2.4s-7.1-.8-10.1-2.5c-3-1.6-5.4-3.9-7.1-6.9-1.7-2.9-2.6-6.3-2.6-10s.9-7,2.6-10c1.7-2.9,4.1-5.2,7.1-6.8,3-1.6,6.4-2.4,10.1-2.4s7,.8,9.9,2.4c2.9,1.6,5.2,3.9,6.8,6.8v-9h3.7ZM600.8,323.3c2.5-1.3,4.4-3.2,5.8-5.6,1.4-2.4,2.1-5.2,2.1-8.3s-.7-5.8-2.1-8.2c-1.4-2.4-3.3-4.2-5.8-5.6-2.5-1.3-5.3-2-8.4-2s-5.9.7-8.3,2c-2.5,1.3-4.4,3.2-5.8,5.6-1.4,2.4-2.1,5.1-2.1,8.2s.7,5.8,2.1,8.3c1.4,2.4,3.3,4.3,5.8,5.6,2.5,1.3,5.2,2,8.3,2s5.9-.7,8.4-2Z"/>
      <path class="st0" d="M659.8,294.5c2.9,2.9,4.3,7.1,4.3,12.5v23.2h-3.8v-22.9c0-4.5-1.1-7.9-3.4-10.2-2.3-2.3-5.4-3.5-9.5-3.5s-8.3,1.4-11,4.2c-2.7,2.8-4,6.5-4,11.3v21.2h-3.8v-39.7h3.7v8.6c1.4-2.8,3.4-5,6.1-6.5,2.7-1.6,5.9-2.4,9.6-2.4s8.9,1.4,11.8,4.3Z"/>
      <path class="st0" d="M680.7,329c-2.9-1-5.1-2.2-6.8-3.7l1.8-3c1.6,1.4,3.7,2.5,6.3,3.4,2.6.9,5.2,1.4,8,1.4,4,0,7-.7,8.9-2s2.9-3.1,2.9-5.5-.5-3-1.6-4c-1-1-2.3-1.7-3.8-2.1-1.5-.5-3.6-.9-6.3-1.4-3.1-.6-5.7-1.2-7.6-1.8-1.9-.7-3.6-1.7-4.9-3.2-1.4-1.5-2.1-3.5-2.1-6.1s1.3-5.7,3.9-7.8c2.6-2.1,6.3-3.1,11.1-3.1s5,.4,7.5,1.1c2.5.7,4.5,1.6,6.1,2.8l-1.7,3c-1.6-1.2-3.5-2.1-5.6-2.7-2.1-.6-4.2-.9-6.4-.9-3.7,0-6.5.7-8.4,2.1-1.9,1.4-2.8,3.2-2.8,5.4s.5,3.2,1.6,4.1c1.1,1,2.4,1.7,3.9,2.2,1.5.5,3.7,1,6.5,1.6,3.1.6,5.6,1.2,7.5,1.8,1.9.6,3.5,1.7,4.8,3.1s2,3.4,2,5.9-1.4,5.9-4.1,7.9c-2.7,2-6.6,3-11.6,3s-6.2-.5-9.1-1.4Z"/>
    </g>
    <g>
      <path class="st3" d="M246.1,281l-4.9,11.8c-7.9-4.1-20.6-5.6-22.1-.4-.9,3.8,4.6,4.6,12.6,6.2,11.2,2.1,17.1,7,16.9,15.2,0,9.9-8.2,16.3-20.2,17.2-10.5.8-19.8-1.1-26.4-5l5.3-11.9c6.4,3.7,14.8,5.6,21.9,4.2,2-.6,2.8-1.7,2.9-3.1.1-2.6-3.3-3.5-4.3-3.8-10.5-2.4-15.8-3.4-19.6-6.3-8.3-5.3-7.6-19.4,3.1-25.1,10.7-5.7,26.3-3.5,34.8.9Z"/>
      <path class="st3" d="M242.4,278h11.8s17.8,29.1,17.8,29.1l17.3-29.1h13.7s.2,52,.2,52h-15.1l-.2-26.1-12.6,21.3h-7.2l-12.6-20.3v25.1s-15.1,0-15.1,0v-1c4.8-2.6,9.4-7.4,9.4-15.5,0-6.2-3.2-10.7-9.4-13.6v-5.9s1.4.7,1.4.7l5.9-14.2c-1.7-1-3.4-1.8-5.3-2.5Z"/>
      <path class="st3" d="M304.3,280.8v15.5c9.1-5.3,19.7-4.6,20.3,4.1-8.2-.3-15.6,0-20.2,2v27c7.9,3.9,18.9,2,21.6-8.8v9.5h16.4v-28.3c-.1-24.1-21.7-26.3-38.1-20.9ZM316.6,319.2c-2.8-.8-4.4-3.2-3.4-6.6.8-1.8,2.5-3,5.9-3.1h5.6s0,4.4,0,4.4c-1.1,3.8-4.2,6.1-8.1,5.4Z"/>
      <path class="st3" d="M385.8,286.7l-10.3,9.3c-7.7-9.8-24.9-7.6-24.9,8.4s15.3,18.8,24.9,7.7l10.4,9.2c-8,11.1-29.7,13.7-42.1,3.8v-23.3c-.2-6.1-1.4-11.3-3.8-15.2,10.4-13.3,36-13,45.9,0Z"/>
      <polygon class="st3" points="385.6 298.1 407.2 298.1 407.2 310 385.6 310 385.6 298.1"/>
    </g>
  </g>
</svg>