<?xml version="1.0" encoding="UTF-8"?>
<svg id="Layer_1" xmlns="http://www.w3.org/2000/svg" version="1.1" viewBox="0 0 792 612">
  <!-- Generator: Adobe Illustrator 29.3.1, SVG Export Plug-In . SVG Version: 2.1.0 Build 151)  -->
  <defs>
    <style>
      .st0 {
        fill: #f7f8f8;
      }

      .st1, .st2 {
        fill: none;
        stroke: #f7f8f8;
        stroke-miterlimit: 10;
        stroke-width: 3px;
      }

      .st3 {
        fill: #e37171;
      }

      .st2 {
        stroke-linecap: round;
      }

      .st4 {
        fill: #dc7274;
      }
    </style>
  </defs>
  <g>
    <path class="st3" d="M315.7,246.2l15.7-22.3c.2-.2.2-.5.3-.7l4.9-64.1c0-.2,0-.4.2-.6l24.7-45c.5-.9,1.8-1,2.4-.2l14.5,19.7c.3.4.4.9.2,1.3l-9.9,30.5c-.2.5,0,1,.3,1.4l4.9,5.5c.7.7,1.9.6,2.3-.2l13.1-22.7c0-.1.2-.3.3-.4l63.9-56.9c.6-.5,1.4-.5,2,0l10.9,10.7c.5.5.6,1.3.2,1.8l-22.7,34.5c-.9,1.4.8,2.9,2.1,2l50.1-36.6c.8-.6,1.9-.2,2.2.7l6.5,18c.2.6,0,1.3-.5,1.6l-12.4,9.7c-.6.5-.7,1.3-.4,1.9l5.3,8.9c.3.6.2,1.3-.2,1.8l-24.6,25.2c-.6.6-.6,1.5,0,2l6.2,6.3c.6.6.6,1.5,0,2l-33.5,34.4c-.1.1-.3.2-.4.3l-59.5,27.9c-.2,0-.3.2-.4.3l-34.1,34.1c-.6.6-1.5.6-2,0l-32.2-31.1c-.5-.5-.6-1.3-.2-1.9Z"/>
    <path class="st1" d="M306.6,245.1l15.7-22.3c.2-.2.2-.5.3-.7l4.9-64.1c0-.2,0-.4.2-.6l24.7-45c.5-.9,1.8-1,2.4-.2l14.5,19.7c.3.4.4.9.2,1.3l-9.9,30.5c-.2.5,0,1,.3,1.4l4.9,5.5c.7.7,1.9.6,2.3-.2l13.1-22.7c0-.1.2-.3.3-.4l63.9-56.9c.6-.5,1.4-.5,2,0l10.9,10.7c.5.5.6,1.3.2,1.8l-22.7,34.5c-.9,1.4.8,2.9,2.1,2l50.1-36.6c.8-.6,1.9-.2,2.2.7l6.5,18c.2.6,0,1.3-.5,1.6l-12.4,9.7c-.6.5-.7,1.3-.4,1.9l5.3,8.9c.3.6.2,1.3-.2,1.8l-24.6,25.2c-.6.6-.6,1.5,0,2l6.2,6.3c.6.6.6,1.5,0,2l-33.5,34.4c-.1.1-.3.2-.4.3l-59.5,27.9c-.2,0-.3.2-.4.3l-34.1,34.1c-.6.6-1.5.6-2,0l-32.2-31.1c-.5-.5-.6-1.3-.2-1.9Z"/>
    <line class="st2" x1="443.5" y1="162.9" x2="482.6" y2="132.8"/>
    <line class="st2" x1="439.6" y1="192.6" x2="464" y2="169.3"/>
  </g>
  <g>
    <g>
      <path class="st0" d="M143.9,473.2h19.5c5.1,0,9.7,1.2,13.6,3.6,4,2.4,7,5.7,9.3,10,2.2,4.2,3.3,9.1,3.3,14.4s-1.1,10.2-3.3,14.4c-2.2,4.2-5.3,7.6-9.3,10-4,2.4-8.5,3.6-13.6,3.6h-19.5v-56ZM163.1,525.5c4.5,0,8.6-1,12-3.1,3.5-2.1,6.1-4.9,8-8.6,1.9-3.7,2.8-7.9,2.8-12.6s-.9-9-2.8-12.6c-1.9-3.7-4.6-6.5-8-8.6-3.5-2.1-7.5-3.1-12-3.1h-15.6v48.6h15.6Z"/>
      <path class="st0" d="M274.1,509.2h-31.6c0,3.3.8,6.1,2.2,8.7,1.4,2.5,3.2,4.5,5.5,5.9,2.3,1.4,4.9,2.1,7.8,2.1s4.6-.5,6.7-1.5c2-1,3.7-2.4,5.1-4.4l2,2.6c-1.6,2.2-3.6,3.9-6,5-2.4,1.2-5,1.8-7.8,1.8s-6.9-.9-9.8-2.7c-2.9-1.8-5.1-4.3-6.7-7.5-1.6-3.2-2.4-6.9-2.4-11s.8-7.7,2.3-10.9c1.5-3.2,3.6-5.7,6.3-7.6,2.7-1.8,5.7-2.7,9-2.7s6.3.9,9,2.7c2.6,1.8,4.7,4.3,6.3,7.5,1.5,3.2,2.3,6.8,2.3,10.9v1.1ZM249.7,492.6c-2.1,1.3-3.7,3.1-5,5.5-1.2,2.4-2,5.1-2.1,8h28.1c-.1-3-.8-5.7-2.1-8-1.3-2.3-2.9-4.2-5-5.5-2.1-1.3-4.4-2-7-2s-4.9.7-7,2Z"/>
      <path class="st0" d="M328.2,527.9c-2.7-1-4.8-2.3-6.3-3.8l1.6-3.2c1.5,1.4,3.4,2.6,5.8,3.6,2.4,1,4.8,1.4,7.4,1.4,3.7,0,6.4-.7,8.2-2.1,1.8-1.4,2.6-3.3,2.6-5.8s-.5-3.1-1.4-4.2c-1-1-2.1-1.8-3.6-2.2-1.4-.5-3.4-1-5.8-1.5-2.9-.6-5.3-1.2-7-1.9s-3.3-1.8-4.6-3.4c-1.3-1.5-1.9-3.7-1.9-6.4s1.2-6,3.6-8.2c2.4-2.2,5.9-3.2,10.3-3.2s4.7.4,7,1.1c2.3.7,4.2,1.7,5.6,3l-1.6,3.2c-1.5-1.2-3.2-2.2-5.1-2.8-1.9-.6-3.9-1-5.9-1-3.4,0-6,.7-7.7,2.2-1.7,1.4-2.6,3.3-2.6,5.7s.5,3.3,1.5,4.4c1,1,2.2,1.8,3.6,2.3,1.4.5,3.4,1.1,6,1.6,2.9.6,5.2,1.2,6.9,1.9,1.8.7,3.2,1.7,4.5,3.2,1.2,1.5,1.8,3.5,1.8,6.2s-1.3,6.2-3.8,8.3c-2.5,2.1-6.1,3.1-10.7,3.1s-5.8-.5-8.4-1.5Z"/>
      <path class="st0" d="M402.9,476.3c-.6-.6-.8-1.4-.8-2.3s.3-1.7.8-2.3c.6-.6,1.2-1,2-1s1.5.3,2,.9c.6.6.8,1.4.8,2.3s-.3,1.7-.8,2.3c-.6.6-1.2,1-2,1s-1.5-.3-2-.9ZM403.2,487.4h3.5v41.7h-3.5v-41.7Z"/>
      <path class="st0" d="M496.8,487.4v37.3c0,6.9-1.5,12-4.4,15.4-3,3.3-7.4,5-13.4,5s-6.6-.6-9.6-1.8c-3-1.2-5.4-2.8-7.2-4.9l1.9-3c1.8,1.9,4,3.4,6.6,4.5,2.6,1.1,5.3,1.6,8.2,1.6,4.9,0,8.5-1.3,10.8-4,2.3-2.6,3.5-6.7,3.5-12.3v-7c-1.5,3-3.6,5.4-6.3,7-2.7,1.7-5.7,2.5-9,2.5s-6.5-.9-9.3-2.6c-2.8-1.7-5-4.1-6.6-7.2-1.6-3.1-2.4-6.6-2.4-10.5s.8-7.4,2.4-10.5c1.6-3.1,3.8-5.5,6.6-7.2,2.8-1.7,5.9-2.6,9.3-2.6s6.4.9,9.1,2.6c2.7,1.7,4.8,4.1,6.3,7.2v-9.4h3.4ZM486.1,521.9c2.3-1.4,4.1-3.4,5.4-5.9,1.3-2.5,1.9-5.4,1.9-8.7s-.6-6.1-1.9-8.6c-1.3-2.5-3.1-4.5-5.4-5.9-2.3-1.4-4.9-2.1-7.7-2.1s-5.4.7-7.7,2.1c-2.3,1.4-4.1,3.4-5.3,5.9-1.3,2.5-1.9,5.4-1.9,8.6s.6,6.1,1.9,8.7c1.3,2.5,3.1,4.5,5.3,5.9,2.3,1.4,4.8,2.1,7.7,2.1s5.4-.7,7.7-2.1Z"/>
      <path class="st0" d="M582.8,491.6c2.7,3,4,7.4,4,13.1v24.4h-3.5v-24.1c0-4.7-1-8.3-3.1-10.7-2.1-2.5-5-3.7-8.8-3.7s-7.7,1.5-10.2,4.4c-2.5,2.9-3.7,6.9-3.7,11.8v22.2h-3.5v-41.7h3.4v9c1.3-2.9,3.2-5.2,5.7-6.9,2.5-1.7,5.5-2.5,8.9-2.5s8.2,1.5,10.9,4.6Z"/>
      <path class="st0" d="M644.4,527.9c-2.7-1-4.8-2.3-6.3-3.8l1.6-3.2c1.5,1.4,3.4,2.6,5.8,3.6,2.4,1,4.8,1.4,7.4,1.4,3.7,0,6.4-.7,8.2-2.1,1.8-1.4,2.6-3.3,2.6-5.8s-.5-3.1-1.4-4.2c-1-1-2.1-1.8-3.6-2.2-1.4-.5-3.4-1-5.8-1.5-2.9-.6-5.3-1.2-7-1.9-1.8-.7-3.3-1.8-4.6-3.4-1.3-1.5-1.9-3.7-1.9-6.4s1.2-6,3.6-8.2c2.4-2.2,5.9-3.2,10.3-3.2s4.7.4,7,1.1c2.3.7,4.2,1.7,5.6,3l-1.6,3.2c-1.5-1.2-3.2-2.2-5.1-2.8-1.9-.6-3.9-1-5.9-1-3.4,0-6,.7-7.7,2.2-1.7,1.4-2.6,3.3-2.6,5.7s.5,3.3,1.5,4.4c1,1,2.2,1.8,3.6,2.3,1.4.5,3.4,1.1,6,1.6,2.9.6,5.2,1.2,6.9,1.9,1.8.7,3.2,1.7,4.5,3.2,1.2,1.5,1.8,3.5,1.8,6.2s-1.3,6.2-3.8,8.3c-2.5,2.1-6.1,3.1-10.7,3.1s-5.8-.5-8.4-1.5Z"/>
    </g>
    <g>
      <path class="st4" d="M256.3,322.4l-12.5,30.1c-20.2-10.5-52.4-14.3-56.1-1.1-2.3,9.7,11.7,11.7,31.9,15.7,28.6,5.4,43.6,17.9,42.9,38.7-.2,25.2-20.9,41.4-51.3,43.9-26.7,2-50.4-2.8-67.3-12.7l13.6-30.3c16.4,9.5,37.6,14.1,55.8,10.7,5-1.5,7.2-4.2,7.3-7.9.3-6.5-8.5-8.9-10.9-9.6-26.6-6.2-40.3-8.6-50-16-21-13.5-19.2-49.4,7.9-63.8,27.3-14.4,66.8-9,88.6,2.3Z"/>
      <path class="st4" d="M247,314.6h30s45.3,74,45.3,74l44-74h34.9s.4,132.4.4,132.4h-38.3l-.4-66.3-32.1,54.1h-18.3l-32.1-51.7v63.9s-38.3,0-38.3,0v-2.6c12.2-6.7,24-18.8,23.9-39.5,0-15.7-8.2-27.3-23.9-34.7v-14.9s3.5,1.8,3.5,1.8l15.1-36.2c-4.2-2.5-8.7-4.7-13.6-6.4Z"/>
      <path class="st4" d="M404.5,321.7v39.4c23-13.5,50-11.7,51.8,10.3-21-.7-39.6.1-51.5,5.1v68.7c20,9.8,48.2,5,55-22.5v24.2h41.7v-71.9c-.3-61.4-55.3-67-97-53.3ZM435.8,419.5c-7.2-2.1-11.2-8.2-8.7-16.9,1.9-4.7,6.2-7.8,15-8h14.3s0,11.2,0,11.2c-2.8,9.7-10.6,15.5-20.7,13.6Z"/>
      <path class="st4" d="M611.8,336.8l-26.3,23.6c-19.6-25-63.4-19.3-63.4,21.3s39,47.8,63.3,19.7l26.4,23.4c-20.3,28.3-75.6,35-107.2,9.7v-59.3c-.6-15.5-3.4-28.8-9.8-38.6,26.4-33.8,91.7-33,116.9.2Z"/>
      <polygon class="st4" points="611.3 365.9 666.3 365.9 666.3 396 611.4 396 611.3 365.9"/>
    </g>
  </g>
</svg>